<?xml version="1.0" standalone="no"?>
 <!DOCTYPE svg PUBLIC "-//W3C//DTD SVG 1.1//EN" 
 "http://www.w3.org/Graphics/SVG/1.1/DTD/svg11.dtd"> 
<svg
  xmlns:svg="http://www.w3.org/2000/svg"
  xmlns="http://www.w3.org/2000/svg"
  xmlns:xlink="http://www.w3.org/1999/xlink"
  version="1.1"
  width="31.094680cm" height="9.052560cm" viewBox="0 0 122420 35640">
<title>SVG Picture created as plate-brd.svg date 2020/10/12 16:35:41 </title>
  <desc>Picture generated by PCBNEW </desc>
<g style="fill:#000000; fill-opacity:1;stroke:#000000; stroke-opacity:1;
stroke-linecap:round; stroke-linejoin:round;"
 transform="translate(0 0) scale(1 1)">
</g>
<g style="fill:#000000; fill-opacity:0.0; 
stroke:#000000; stroke-width:-0.000393701; stroke-opacity:1; 
stroke-linecap:round; stroke-linejoin:round;">
<g >
</g>
<g >
</g>
<g >
</g>
<g >
</g>
<g >
</g>
<g >
</g>
<g >
</g>
<g >
</g>
<g >
</g>
<g >
</g>
<g >
</g>
<g >
</g>
<g >
</g>
<g >
</g>
<g >
</g>
<g >
</g>
<g >
</g>
<g >
</g>
<g >
</g>
<g >
</g>
<g >
</g>
</g>
<g style="fill:#000000; fill-opacity:0.0; 
stroke:#000000; stroke-width:-0.000393701; stroke-opacity:1; 
stroke-linecap:round; stroke-linejoin:round;">
</g>
<g style="fill:#C2C200; fill-opacity:0.0; 
stroke:#C2C200; stroke-width:-0.000393701; stroke-opacity:1; 
stroke-linecap:round; stroke-linejoin:round;">
</g>
<g style="fill:#C2C200; fill-opacity:0.0; 
stroke:#C2C200; stroke-width:19.685; stroke-opacity:1; 
stroke-linecap:round; stroke-linejoin:round;">
<path d="M27149 9
L117143 9
" />
<path d="M66185 31823
L66185 26312
" />
<path d="M66579 31823
L66185 31823
" />
<path d="M66579 32611
L66579 31823
" />
<path d="M69335 32611
L66579 32611
" />
<path d="M69335 31823
L69335 32611
" />
<path d="M76421 31823
L69335 31823
" />
<path d="M76421 32611
L76421 31823
" />
<path d="M79177 32611
L76421 32611
" />
<path d="M79177 31823
L79177 32611
" />
<path d="M79571 31823
L79177 31823
" />
<path d="M79571 26312
L79571 31823
" />
<path d="M66185 26312
L79571 26312
" />
<path d="M13087 9
L5275 9
" />
<path d="M14650 5322
L14650 1572
" />
<path d="M25587 1572
L25587 5322
" />
<path d="M14650.3 1572.24 A1562.4 1562.4 0.0 0 0 13087.9 9.84291" />
<path d="M27149.5 9.84291 A1562.4 1562.4 0.0 0 0 25587.1 1572.24" />
<path d="M14650.3 5322.01 A1562.4 1562.4 0.0 0 0 16212.7 6884.41" />
<path d="M24024.7 6884.41 A1562.4 1562.4 0.0 0 0 25587.1 5322.01" />
<path d="M24024 6884
L16212 6884
" />
<path d="M117143 35632
L29024 35632
" />
<path d="M5275 35632
L11212 35632
" />
<path d="M14650 22820
L14650 32195
" />
<path d="M25587 22820
L25587 32195
" />
<path d="M25587.1 32195.3 A3437.28 3437.28 0.0 0 0 29024.3 35632.6" />
<path d="M11213 35632.6 A3437.28 3437.28 0.0 0 0 14650.3 32195.3" />
<path d="M64334 31882
L58709 31882
" />
<path d="M86833 31882
L81208 31882
" />
<path d="M86833 26258
L86833 31882
" />
<path d="M81208 26258
L86833 26258
" />
<path d="M101832 26258
L101832 31882
" />
<path d="M94332 26258
L94332 31882
" />
<path d="M64334 26258
L64334 31882
" />
<path d="M51210 26258
L56835 26258
" />
<path d="M41836 31882
L36211 31882
" />
<path d="M28711 26258
L34336 26258
" />
<path d="M36211 26258
L41836 26258
" />
<path d="M49335 31882
L43710 31882
" />
<path d="M88708 26258
L94332 26258
" />
<path d="M101832 31882
L96207 31882
" />
<path d="M56835 26258
L56835 31882
" />
<path d="M94332 31882
L88708 31882
" />
<path d="M51210 31882
L51210 26258
" />
<path d="M111206 31882
L111206 26258
" />
<path d="M116831 26258
L116831 31882
" />
<path d="M109331 31882
L103707 31882
" />
<path d="M58709 26258
L64334 26258
" />
<path d="M81208 26258
L81208 31882
" />
<path d="M28711 31882
L28711 26258
" />
<path d="M103707 31882
L103707 26258
" />
<path d="M96207 31882
L96207 26258
" />
<path d="M43710 26258
L49335 26258
" />
<path d="M96207 26258
L101832 26258
" />
<path d="M43710 31882
L43710 26258
" />
<path d="M116831 31882
L111206 31882
" />
<path d="M103707 26258
L109331 26258
" />
<path d="M58709 31882
L58709 26258
" />
<path d="M36211 31882
L36211 26258
" />
<path d="M41836 26258
L41836 31882
" />
<path d="M56835 31882
L51210 31882
" />
<path d="M109331 26258
L109331 31882
" />
<path d="M34336 26258
L34336 31882
" />
<path d="M111206 26258
L116831 26258
" />
<path d="M34336 31882
L28711 31882
" />
<path d="M49335 26258
L49335 31882
" />
<path d="M88708 31882
L88708 26258
" />
<path d="M96207 9384
L96207 3759
" />
<path d="M51210 9384
L51210 3759
" />
<path d="M88708 3759
L94332 3759
" />
<path d="M111206 9384
L111206 3759
" />
<path d="M71834 9384
L66209 9384
" />
<path d="M43710 3759
L49335 3759
" />
<path d="M56835 9384
L51210 9384
" />
<path d="M101832 9384
L96207 9384
" />
<path d="M73709 3759
L79333 3759
" />
<path d="M58709 3759
L64334 3759
" />
<path d="M58709 9384
L58709 3759
" />
<path d="M86833 3759
L86833 9384
" />
<path d="M36211 9384
L36211 3759
" />
<path d="M49335 9384
L43710 9384
" />
<path d="M66209 9384
L66209 3759
" />
<path d="M34336 9384
L28711 9384
" />
<path d="M96207 3759
L101832 3759
" />
<path d="M79333 3759
L79333 9384
" />
<path d="M71834 3759
L71834 9384
" />
<path d="M81208 3759
L86833 3759
" />
<path d="M49335 3759
L49335 9384
" />
<path d="M116831 9384
L111206 9384
" />
<path d="M109331 3759
L109331 9384
" />
<path d="M64334 3759
L64334 9384
" />
<path d="M43710 9384
L43710 3759
" />
<path d="M64334 9384
L58709 9384
" />
<path d="M79333 9384
L73709 9384
" />
<path d="M81208 3759
L81208 9384
" />
<path d="M56835 3759
L56835 9384
" />
<path d="M36211 3759
L41836 3759
" />
<path d="M101832 3759
L101832 9384
" />
<path d="M34336 3759
L34336 9384
" />
<path d="M41836 9384
L36211 9384
" />
<path d="M86833 9384
L81208 9384
" />
<path d="M116831 3759
L116831 9384
" />
<path d="M66209 3759
L71834 3759
" />
<path d="M28711 9384
L28711 3759
" />
<path d="M51210 3759
L56835 3759
" />
<path d="M111206 3759
L116831 3759
" />
<path d="M41836 3759
L41836 9384
" />
<path d="M88708 9384
L88708 3759
" />
<path d="M103707 3759
L109331 3759
" />
<path d="M73709 9384
L73709 3759
" />
<path d="M28711 3759
L34336 3759
" />
<path d="M103707 9384
L103707 3759
" />
<path d="M94332 3759
L94332 9384
" />
<path d="M94332 9384
L88708 9384
" />
<path d="M109331 9384
L103707 9384
" />
<path d="M51210 24383
L51210 18758
" />
<path d="M56835 18758
L56835 24383
" />
<path d="M56835 24383
L51210 24383
" />
<path d="M51210 18758
L56835 18758
" />
<path d="M79333 24383
L73709 24383
" />
<path d="M109331 24383
L103707 24383
" />
<path d="M71834 24383
L66209 24383
" />
<path d="M64334 24383
L58709 24383
" />
<path d="M101832 24383
L96207 24383
" />
<path d="M86833 24383
L81208 24383
" />
<path d="M94332 24383
L88708 24383
" />
<path d="M28711 18758
L34336 18758
" />
<path d="M41836 18758
L41836 24383
" />
<path d="M28711 24383
L28711 18758
" />
<path d="M41836 24383
L36211 24383
" />
<path d="M34336 18758
L34336 24383
" />
<path d="M36211 18758
L41836 18758
" />
<path d="M43710 24383
L43710 18758
" />
<path d="M49335 18758
L49335 24383
" />
<path d="M34336 24383
L28711 24383
" />
<path d="M49335 24383
L43710 24383
" />
<path d="M36211 24383
L36211 18758
" />
<path d="M43710 18758
L49335 18758
" />
<path d="M94332 18758
L94332 24383
" />
<path d="M103707 24383
L103707 18758
" />
<path d="M73709 24383
L73709 18758
" />
<path d="M103707 18758
L109331 18758
" />
<path d="M88708 24383
L88708 18758
" />
<path d="M111206 18758
L116831 18758
" />
<path d="M66209 18758
L71834 18758
" />
<path d="M116831 18758
L116831 24383
" />
<path d="M101832 18758
L101832 24383
" />
<path d="M81208 18758
L81208 24383
" />
<path d="M64334 18758
L64334 24383
" />
<path d="M109331 18758
L109331 24383
" />
<path d="M116831 24383
L111206 24383
" />
<path d="M81208 18758
L86833 18758
" />
<path d="M71834 18758
L71834 24383
" />
<path d="M79333 18758
L79333 24383
" />
<path d="M96207 18758
L101832 18758
" />
<path d="M66209 24383
L66209 18758
" />
<path d="M86833 18758
L86833 24383
" />
<path d="M58709 24383
L58709 18758
" />
<path d="M58709 18758
L64334 18758
" />
<path d="M73709 18758
L79333 18758
" />
<path d="M111206 24383
L111206 18758
" />
<path d="M88708 18758
L94332 18758
" />
<path d="M96207 24383
L96207 18758
" />
<path d="M109331 16883
L103707 16883
" />
<path d="M94332 16883
L88708 16883
" />
<path d="M94332 11259
L94332 16883
" />
<path d="M103707 16883
L103707 11259
" />
<path d="M73709 16883
L73709 11259
" />
<path d="M103707 11259
L109331 11259
" />
<path d="M88708 16883
L88708 11259
" />
<path d="M111206 11259
L116831 11259
" />
<path d="M66209 11259
L71834 11259
" />
<path d="M116831 11259
L116831 16883
" />
<path d="M86833 16883
L81208 16883
" />
<path d="M101832 11259
L101832 16883
" />
<path d="M81208 11259
L81208 16883
" />
<path d="M79333 16883
L73709 16883
" />
<path d="M64334 16883
L58709 16883
" />
<path d="M64334 11259
L64334 16883
" />
<path d="M109331 11259
L109331 16883
" />
<path d="M116831 16883
L111206 16883
" />
<path d="M81208 11259
L86833 11259
" />
<path d="M71834 11259
L71834 16883
" />
<path d="M79333 11259
L79333 16883
" />
<path d="M96207 11259
L101832 11259
" />
<path d="M66209 16883
L66209 11259
" />
<path d="M86833 11259
L86833 16883
" />
<path d="M58709 16883
L58709 11259
" />
<path d="M58709 11259
L64334 11259
" />
<path d="M73709 11259
L79333 11259
" />
<path d="M101832 16883
L96207 16883
" />
<path d="M71834 16883
L66209 16883
" />
<path d="M111206 16883
L111206 11259
" />
<path d="M88708 11259
L94332 11259
" />
<path d="M96207 16883
L96207 11259
" />
<path d="M56835 11259
L56835 16883
" />
<path d="M56835 16883
L51210 16883
" />
<path d="M51210 11259
L56835 11259
" />
<path d="M51210 16883
L51210 11259
" />
<path d="M49335 11259
L49335 16883
" />
<path d="M49335 16883
L43710 16883
" />
<path d="M43710 11259
L49335 11259
" />
<path d="M43710 16883
L43710 11259
" />
<path d="M41836 11259
L41836 16883
" />
<path d="M41836 16883
L36211 16883
" />
<path d="M36211 11259
L41836 11259
" />
<path d="M36211 16883
L36211 11259
" />
<path d="M28711 11259
L29024 11259
" />
<path d="M28711 16883
L28711 11259
" />
<path d="M34336 16883
L28711 16883
" />
<path d="M34336 11259
L34336 16883
" />
<path d="M29024 11259
L34336 11259
" />
<path d="M1838 3447
L1838 32195
" />
<path d="M120581 32195
L120581 3447
" />
<path d="M117144 35632.6 A3437.28 3437.28 0.0 0 0 120581 32195.3" />
<path d="M120581 3447.13 A3437.28 3437.28 0.0 0 0 117144 9.84291" />
<path d="M5275.84 9.84291 A3437.28 3437.28 0.0 0 0 1838.56 3447.13" />
<path d="M1838.56 32195.3 A3437.28 3437.28 0.0 0 0 5275.84 35632.6" />
<path d="M5588 26258
L5589 31885
" />
<path d="M11212 31882
L5589 31885
" />
<path d="M11212 26258
L11212 31882
" />
<path d="M5588 26258
L11212 26258
" />
<path d="M5588 24383
L5588 18758
" />
<path d="M11212 24383
L5588 24383
" />
<path d="M11212 18758
L11212 24383
" />
<path d="M5588 18758
L11212 18758
" />
<path d="M5588 16883
L5588 11259
" />
<path d="M11212 16883
L5588 16883
" />
<path d="M11212 11259
L11212 16883
" />
<path d="M5588 11259
L11212 11259
" />
<path d="M16212 21258
L24024 21258
" />
<path d="M24024 19383
L16212 19383
" />
<path d="M25587 10321
L25587 17821
" />
<path d="M16212 8759
L24024 8759
" />
<path d="M14650 17821
L14650 10321
" />
<path d="M16212.7 8759.29 A1562.4 1562.4 0.0 0 0 14650.3 10321.7" />
<path d="M25587.1 10321.7 A1562.4 1562.4 0.0 0 0 24024.7 8759.29" />
<path d="M24024.7 19383.6 A1562.4 1562.4 0.0 0 0 25587.1 17821.2" />
<path d="M14650.3 17821.2 A1562.4 1562.4 0.0 0 0 16212.7 19383.6" />
<path d="M25587.1 22820.9 A1562.4 1562.4 0.0 0 0 24024.7 21258.5" />
<path d="M16212.7 21258.5 A1562.4 1562.4 0.0 0 0 14650.3 22820.9" />
<path d="M5588 9384
L5589 3760
" />
<path d="M11212 9384
L5588 9384
" />
<path d="M11212 3759
L11212 9384
" />
<path d="M5589 3760
L11212 3759
" />
<g >
</g>
<g >
</g>
<g >
</g>
<g >
</g>
<g >
</g>
<g >
</g>
<g >
</g>
<g >
</g>
<g >
</g>
<g >
</g>
<g >
</g>
<g >
</g>
<g >
</g>
<g >
</g>
<g >
</g>
<g >
</g>
<g >
</g>
<g >
</g>
<g >
</g>
<g >
</g>
<g >
</g>
</g> 
</svg>
