M48
; DRILL file {KiCad 5.1.6} date Wed Jun 24 16:03:58 2020
; FORMAT={-:-/ absolute / inch / decimal}
; #@! TF.CreationDate,2020-06-24T16:03:58+02:00
; #@! TF.GenerationSoftware,Kicad,Pcbnew,5.1.6
; #@! TF.FileFunction,NonPlated,1,2,NPTH
FMAT,2
INCH
T1C0.0689
T2C0.1570
T3C0.2087
%
G90
G05
T1
X12.4562Y-1.6875
X12.8562Y-1.6875
X10.9562Y-2.4375
X11.3562Y-2.4375
X11.7062Y-3.9375
X12.1062Y-3.9375
X9.4562Y-2.4375
X9.8562Y-2.4375
X9.4562Y-3.9375
X9.8562Y-3.9375
X10.9562Y-3.1875
X11.3562Y-3.1875
X11.7062Y-2.4375
X12.1062Y-2.4375
X4.9562Y-1.6875
X5.3563Y-1.6875
X6.4562Y-3.9375
X6.8563Y-3.9375
X10.2062Y-3.1875
X10.6062Y-3.1875
X12.4562Y-2.4375
X12.8562Y-2.4375
X5.7062Y-3.9375
X6.1063Y-3.9375
X5.7062Y-3.1875
X6.1063Y-3.1875
X7.9562Y-3.1875
X8.3562Y-3.1875
X9.4562Y-3.1875
X9.8562Y-3.1875
X2.6437Y-2.4375
X3.0437Y-2.4375
X10.9562Y-3.9375
X11.3562Y-3.9375
X12.4562Y-3.1875
X12.8562Y-3.1875
X4.9562Y-3.1875
X5.3563Y-3.1875
X7.2062Y-2.4375
X7.6063Y-2.4375
X13.2062Y-3.1875
X13.6062Y-3.1875
X10.9562Y-1.6875
X11.3562Y-1.6875
X7.2062Y-3.1875
X7.6063Y-3.1875
X7.2062Y-1.6875
X7.6063Y-1.6875
X7.9562Y-2.4375
X8.3562Y-2.4375
X10.2062Y-1.6875
X10.6062Y-1.6875
X13.2062Y-2.4375
X13.6062Y-2.4375
X4.9562Y-2.4375
X5.3563Y-2.4375
X8.7062Y-3.1875
X9.1062Y-3.1875
X5.7062Y-2.4375
X6.1063Y-2.4375
X2.6437Y-1.6875
X3.0437Y-1.6875
X13.2062Y-3.9375
X13.6062Y-3.9375
X7.9562Y-1.6875
X8.3562Y-1.6875
X5.7062Y-1.6875
X6.1063Y-1.6875
X13.2062Y-1.6875
X13.6062Y-1.6875
X10.2062Y-2.4375
X10.6062Y-2.4375
X9.4562Y-1.6875
X9.8562Y-1.6875
X11.7062Y-1.6875
X12.1062Y-1.6875
X7.2062Y-3.9375
X7.6063Y-3.9375
X2.6437Y-3.1875
X3.0437Y-3.1875
X6.4562Y-2.4375
X6.8563Y-2.4375
X4.9562Y-3.9375
X5.3563Y-3.9375
X8.7062Y-1.6875
X9.1062Y-1.6875
X11.7062Y-3.1875
X12.1062Y-3.1875
X12.4562Y-3.9375
X12.8562Y-3.9375
X8.7062Y-2.4375
X9.1062Y-2.4375
X6.4562Y-3.1875
X6.8563Y-3.1875
X8.7062Y-3.9375
X9.1062Y-3.9375
X6.4562Y-1.6875
X6.8563Y-1.6875
X7.9562Y-3.9375
X8.3562Y-3.9375
X2.6437Y-3.9375
X3.0437Y-3.9375
X10.2062Y-3.9375
X10.6062Y-3.9375
T2
X12.6562Y-1.6875
X11.1562Y-2.4375
X11.9062Y-3.9375
X9.6562Y-2.4375
X9.6562Y-3.9375
X11.1562Y-3.1875
X11.9062Y-2.4375
X5.1562Y-1.6875
X6.6562Y-3.9375
X10.4062Y-3.1875
X12.6562Y-2.4375
X5.9062Y-3.9375
X5.9062Y-3.1875
X8.1562Y-3.1875
X9.6562Y-3.1875
X2.8438Y-2.4375
X11.1562Y-3.9375
X12.6562Y-3.1875
X5.1562Y-3.1875
X7.4062Y-2.4375
X13.4062Y-3.1875
X11.1562Y-1.6875
X7.4062Y-3.1875
X7.4062Y-1.6875
X8.1562Y-2.4375
X10.4062Y-1.6875
X13.4062Y-2.4375
X5.1562Y-2.4375
X8.9062Y-3.1875
X5.9062Y-2.4375
X2.8438Y-1.6875
X13.4062Y-3.9375
X8.1562Y-1.6875
X5.9062Y-1.6875
X13.4062Y-1.6875
X10.4062Y-2.4375
X9.6562Y-1.6875
X11.9062Y-1.6875
X7.4062Y-3.9375
X2.8438Y-3.1875
X6.6562Y-2.4375
X5.1562Y-3.9375
X8.9062Y-1.6875
X11.9062Y-3.1875
X12.6562Y-3.9375
X8.9062Y-2.4375
X6.6562Y-3.1875
X8.9062Y-3.9375
X6.6562Y-1.6875
X8.1562Y-3.9375
X2.8438Y-3.9375
X10.4062Y-3.9375
T3
X3.2185Y-2.8123
X5.5315Y-2.8123
X13.0304Y-2.8123
X9.2807Y-2.8123
T0
M30
