%TF.GenerationSoftware,KiCad,Pcbnew,5.1.6*%
%TF.CreationDate,2020-09-29T12:29:31+02:00*%
%TF.ProjectId,cheap_boi,63686561-705f-4626-9f69-2e6b69636164,rev?*%
%TF.SameCoordinates,Original*%
%TF.FileFunction,Legend,Top*%
%TF.FilePolarity,Positive*%
%FSLAX46Y46*%
G04 Gerber Fmt 4.6, Leading zero omitted, Abs format (unit mm)*
G04 Created by KiCad (PCBNEW 5.1.6) date 2020-09-29 12:29:31*
%MOMM*%
%LPD*%
G01*
G04 APERTURE LIST*
%ADD10C,0.150000*%
%ADD11C,0.120000*%
%ADD12C,1.850000*%
%ADD13C,4.087800*%
%ADD14C,3.148000*%
%ADD15R,0.650000X1.600000*%
%ADD16R,1.600000X0.650000*%
%ADD17O,1.800000X2.800000*%
%ADD18R,0.600000X2.350000*%
%ADD19O,1.700000X2.100000*%
%ADD20C,5.400000*%
G04 APERTURE END LIST*
D10*
%TO.C,U1*%
X96418600Y-57308600D02*
X95143600Y-57308600D01*
X106768600Y-56733600D02*
X106093600Y-56733600D01*
X106768600Y-67083600D02*
X106093600Y-67083600D01*
X96418600Y-67083600D02*
X97093600Y-67083600D01*
X96418600Y-56733600D02*
X97093600Y-56733600D01*
X96418600Y-67083600D02*
X96418600Y-66408600D01*
X106768600Y-67083600D02*
X106768600Y-66408600D01*
X106768600Y-56733600D02*
X106768600Y-57408600D01*
X96418600Y-56733600D02*
X96418600Y-57308600D01*
%TO.C,USB1*%
X105443600Y-34922800D02*
X105443600Y-40372800D01*
X97743600Y-34922800D02*
X97743600Y-40372800D01*
X105443600Y-40372800D02*
X97743600Y-40372800D01*
D11*
%TO.C,Brd1*%
X115055600Y-83845900D02*
X114801600Y-83857900D01*
X115055600Y-100482900D02*
X115055600Y-83845900D01*
X111715600Y-100457900D02*
X115055600Y-100482900D01*
X111715600Y-83857900D02*
X114801600Y-83857900D01*
X96894600Y-81051900D02*
X96894600Y-83464900D01*
X106673600Y-83464900D02*
X96894600Y-83464900D01*
X106673600Y-81051900D02*
X106673600Y-83464900D01*
X96894600Y-81051900D02*
X106673600Y-81051900D01*
X88615600Y-83857900D02*
X111715600Y-83857900D01*
X88615600Y-100457900D02*
X88615600Y-83857900D01*
X111715600Y-100457900D02*
X88615600Y-100457900D01*
X88193600Y-107862900D02*
X88193600Y-80562900D01*
X115593600Y-107862900D02*
X88193600Y-107862900D01*
X115593600Y-80562900D02*
X115593600Y-107862900D01*
X88193600Y-80562900D02*
X115593600Y-80562900D01*
%TO.C,U1*%
D10*
X100831695Y-53910980D02*
X100831695Y-54720504D01*
X100879314Y-54815742D01*
X100926933Y-54863361D01*
X101022171Y-54910980D01*
X101212647Y-54910980D01*
X101307885Y-54863361D01*
X101355504Y-54815742D01*
X101403123Y-54720504D01*
X101403123Y-53910980D01*
X102403123Y-54910980D02*
X101831695Y-54910980D01*
X102117409Y-54910980D02*
X102117409Y-53910980D01*
X102022171Y-54053838D01*
X101926933Y-54149076D01*
X101831695Y-54196695D01*
%TO.C,USB1*%
X99855504Y-36407180D02*
X99855504Y-37216704D01*
X99903123Y-37311942D01*
X99950742Y-37359561D01*
X100045980Y-37407180D01*
X100236457Y-37407180D01*
X100331695Y-37359561D01*
X100379314Y-37311942D01*
X100426933Y-37216704D01*
X100426933Y-36407180D01*
X100855504Y-37359561D02*
X100998361Y-37407180D01*
X101236457Y-37407180D01*
X101331695Y-37359561D01*
X101379314Y-37311942D01*
X101426933Y-37216704D01*
X101426933Y-37121466D01*
X101379314Y-37026228D01*
X101331695Y-36978609D01*
X101236457Y-36930990D01*
X101045980Y-36883371D01*
X100950742Y-36835752D01*
X100903123Y-36788133D01*
X100855504Y-36692895D01*
X100855504Y-36597657D01*
X100903123Y-36502419D01*
X100950742Y-36454800D01*
X101045980Y-36407180D01*
X101284076Y-36407180D01*
X101426933Y-36454800D01*
X102188838Y-36883371D02*
X102331695Y-36930990D01*
X102379314Y-36978609D01*
X102426933Y-37073847D01*
X102426933Y-37216704D01*
X102379314Y-37311942D01*
X102331695Y-37359561D01*
X102236457Y-37407180D01*
X101855504Y-37407180D01*
X101855504Y-36407180D01*
X102188838Y-36407180D01*
X102284076Y-36454800D01*
X102331695Y-36502419D01*
X102379314Y-36597657D01*
X102379314Y-36692895D01*
X102331695Y-36788133D01*
X102284076Y-36835752D01*
X102188838Y-36883371D01*
X101855504Y-36883371D01*
X103379314Y-37407180D02*
X102807885Y-37407180D01*
X103093600Y-37407180D02*
X103093600Y-36407180D01*
X102998361Y-36550038D01*
X102903123Y-36645276D01*
X102807885Y-36692895D01*
%TO.C,Brd1*%
X100426933Y-93045471D02*
X100569790Y-93093090D01*
X100617409Y-93140709D01*
X100665028Y-93235947D01*
X100665028Y-93378804D01*
X100617409Y-93474042D01*
X100569790Y-93521661D01*
X100474552Y-93569280D01*
X100093600Y-93569280D01*
X100093600Y-92569280D01*
X100426933Y-92569280D01*
X100522171Y-92616900D01*
X100569790Y-92664519D01*
X100617409Y-92759757D01*
X100617409Y-92854995D01*
X100569790Y-92950233D01*
X100522171Y-92997852D01*
X100426933Y-93045471D01*
X100093600Y-93045471D01*
X101093600Y-93569280D02*
X101093600Y-92902614D01*
X101093600Y-93093090D02*
X101141219Y-92997852D01*
X101188838Y-92950233D01*
X101284076Y-92902614D01*
X101379314Y-92902614D01*
X102141219Y-93569280D02*
X102141219Y-92569280D01*
X102141219Y-93521661D02*
X102045980Y-93569280D01*
X101855504Y-93569280D01*
X101760266Y-93521661D01*
X101712647Y-93474042D01*
X101665028Y-93378804D01*
X101665028Y-93093090D01*
X101712647Y-92997852D01*
X101760266Y-92950233D01*
X101855504Y-92902614D01*
X102045980Y-92902614D01*
X102141219Y-92950233D01*
X103141219Y-93569280D02*
X102569790Y-93569280D01*
X102855504Y-93569280D02*
X102855504Y-92569280D01*
X102760266Y-92712138D01*
X102665028Y-92807376D01*
X102569790Y-92854995D01*
%TO.C, *%
%TD*%
%LPC*%
D12*
%TO.C,MX3A1*%
X307498750Y-100012500D03*
X297338750Y-100012500D03*
D13*
X302418750Y-100012500D03*
%TD*%
%TO.C,MX40*%
X247650000Y-91821000D03*
X223774000Y-91821000D03*
D14*
X247650000Y-107061000D03*
X223774000Y-107061000D03*
D12*
X240792000Y-100076000D03*
X230632000Y-100076000D03*
D13*
X235712000Y-100076000D03*
%TD*%
D12*
%TO.C,MX0*%
X77311250Y-42862500D03*
X67151250Y-42862500D03*
D13*
X72231250Y-42862500D03*
%TD*%
D12*
%TO.C,MX1*%
X136048750Y-42862500D03*
X125888750Y-42862500D03*
D13*
X130968750Y-42862500D03*
%TD*%
D12*
%TO.C,MX2*%
X155098750Y-42862500D03*
X144938750Y-42862500D03*
D13*
X150018750Y-42862500D03*
%TD*%
D12*
%TO.C,MX3*%
X174148750Y-42862500D03*
X163988750Y-42862500D03*
D13*
X169068750Y-42862500D03*
%TD*%
D12*
%TO.C,MX4*%
X193198750Y-42862500D03*
X183038750Y-42862500D03*
D13*
X188118750Y-42862500D03*
%TD*%
D12*
%TO.C,MX5*%
X212248750Y-42862500D03*
X202088750Y-42862500D03*
D13*
X207168750Y-42862500D03*
%TD*%
D12*
%TO.C,MX6*%
X231298750Y-42862500D03*
X221138750Y-42862500D03*
D13*
X226218750Y-42862500D03*
%TD*%
D12*
%TO.C,MX7*%
X250348750Y-42862500D03*
X240188750Y-42862500D03*
D13*
X245268750Y-42862500D03*
%TD*%
D12*
%TO.C,MX8*%
X269398750Y-42862500D03*
X259238750Y-42862500D03*
D13*
X264318750Y-42862500D03*
%TD*%
D12*
%TO.C,MX9*%
X288448750Y-42862500D03*
X278288750Y-42862500D03*
D13*
X283368750Y-42862500D03*
%TD*%
D12*
%TO.C,MX10*%
X77311250Y-61912500D03*
X67151250Y-61912500D03*
D13*
X72231250Y-61912500D03*
%TD*%
D12*
%TO.C,MX11*%
X136048750Y-61912500D03*
X125888750Y-61912500D03*
D13*
X130968750Y-61912500D03*
%TD*%
D12*
%TO.C,MX12*%
X155098750Y-61912500D03*
X144938750Y-61912500D03*
D13*
X150018750Y-61912500D03*
%TD*%
D12*
%TO.C,MX13*%
X174148750Y-61912500D03*
X163988750Y-61912500D03*
D13*
X169068750Y-61912500D03*
%TD*%
D12*
%TO.C,MX14*%
X193198750Y-61912500D03*
X183038750Y-61912500D03*
D13*
X188118750Y-61912500D03*
%TD*%
D12*
%TO.C,MX16*%
X231298750Y-61912500D03*
X221138750Y-61912500D03*
D13*
X226218750Y-61912500D03*
%TD*%
D12*
%TO.C,MX17*%
X250348750Y-61912500D03*
X240188750Y-61912500D03*
D13*
X245268750Y-61912500D03*
%TD*%
D12*
%TO.C,MX18*%
X269398750Y-61912500D03*
X259238750Y-61912500D03*
D13*
X264318750Y-61912500D03*
%TD*%
D12*
%TO.C,MX19*%
X288448750Y-61912500D03*
X278288750Y-61912500D03*
D13*
X283368750Y-61912500D03*
%TD*%
D12*
%TO.C,MX20*%
X77311250Y-80962500D03*
X67151250Y-80962500D03*
D13*
X72231250Y-80962500D03*
%TD*%
D12*
%TO.C,MX21*%
X136048750Y-80962500D03*
X125888750Y-80962500D03*
D13*
X130968750Y-80962500D03*
%TD*%
D12*
%TO.C,MX22*%
X155098750Y-80962500D03*
X144938750Y-80962500D03*
D13*
X150018750Y-80962500D03*
%TD*%
D12*
%TO.C,MX23*%
X174148750Y-80962500D03*
X163988750Y-80962500D03*
D13*
X169068750Y-80962500D03*
%TD*%
D12*
%TO.C,MX24*%
X193198750Y-80962500D03*
X183038750Y-80962500D03*
D13*
X188118750Y-80962500D03*
%TD*%
D12*
%TO.C,MX25*%
X212248750Y-80962500D03*
X202088750Y-80962500D03*
D13*
X207168750Y-80962500D03*
%TD*%
D12*
%TO.C,MX26*%
X231298750Y-80962500D03*
X221138750Y-80962500D03*
D13*
X226218750Y-80962500D03*
%TD*%
D12*
%TO.C,MX27*%
X250348750Y-80962500D03*
X240188750Y-80962500D03*
D13*
X245268750Y-80962500D03*
%TD*%
D12*
%TO.C,MX28*%
X269398750Y-80962500D03*
X259238750Y-80962500D03*
D13*
X264318750Y-80962500D03*
%TD*%
D12*
%TO.C,MX29*%
X288448750Y-80962500D03*
X278288750Y-80962500D03*
D13*
X283368750Y-80962500D03*
%TD*%
D12*
%TO.C,MX30*%
X77311250Y-100012500D03*
X67151250Y-100012500D03*
D13*
X72231250Y-100012500D03*
%TD*%
D12*
%TO.C,MX31*%
X136048750Y-100012500D03*
X125888750Y-100012500D03*
D13*
X130968750Y-100012500D03*
%TD*%
D12*
%TO.C,MX32*%
X155098750Y-100012500D03*
X144938750Y-100012500D03*
D13*
X150018750Y-100012500D03*
%TD*%
D12*
%TO.C,MX33*%
X174148750Y-100012500D03*
X163988750Y-100012500D03*
D13*
X169068750Y-100012500D03*
%TD*%
D12*
%TO.C,MX34*%
X193198750Y-100012500D03*
X183038750Y-100012500D03*
D13*
X188118750Y-100012500D03*
%TD*%
D12*
%TO.C,MX35*%
X212248750Y-100012500D03*
X202088750Y-100012500D03*
D13*
X207168750Y-100012500D03*
%TD*%
D12*
%TO.C,MX36*%
X231298750Y-100012500D03*
X221138750Y-100012500D03*
D13*
X226218750Y-100012500D03*
%TD*%
D12*
%TO.C,MX37*%
X250348750Y-100012500D03*
X240188750Y-100012500D03*
D13*
X245268750Y-100012500D03*
%TD*%
D12*
%TO.C,MX38*%
X269398750Y-100012500D03*
X259238750Y-100012500D03*
D13*
X264318750Y-100012500D03*
%TD*%
D12*
%TO.C,MX39*%
X288448750Y-100012500D03*
X278288750Y-100012500D03*
D13*
X283368750Y-100012500D03*
%TD*%
D12*
%TO.C,MX0A1*%
X307498750Y-42862500D03*
X297338750Y-42862500D03*
D13*
X302418750Y-42862500D03*
%TD*%
D12*
%TO.C,MX0B1*%
X326548750Y-42862500D03*
X316388750Y-42862500D03*
D13*
X321468750Y-42862500D03*
%TD*%
D12*
%TO.C,MX1A1*%
X307498750Y-61912500D03*
X297338750Y-61912500D03*
D13*
X302418750Y-61912500D03*
%TD*%
D12*
%TO.C,MX1B1*%
X326548750Y-61912500D03*
X316388750Y-61912500D03*
D13*
X321468750Y-61912500D03*
%TD*%
D12*
%TO.C,MX1C1*%
X345598750Y-61912500D03*
X335438750Y-61912500D03*
D13*
X340518750Y-61912500D03*
%TD*%
D12*
%TO.C,MX2A1*%
X307498750Y-80962500D03*
X297338750Y-80962500D03*
D13*
X302418750Y-80962500D03*
%TD*%
D12*
%TO.C,MX2B1*%
X326548750Y-80962500D03*
X316388750Y-80962500D03*
D13*
X321468750Y-80962500D03*
%TD*%
D12*
%TO.C,MX2C1*%
X345598750Y-80962500D03*
X335438750Y-80962500D03*
D13*
X340518750Y-80962500D03*
%TD*%
D12*
%TO.C,MX3B1*%
X326548750Y-100012500D03*
X316388750Y-100012500D03*
D13*
X321468750Y-100012500D03*
%TD*%
D12*
%TO.C,MX3C1*%
X345598750Y-100012500D03*
X335438750Y-100012500D03*
D13*
X340518750Y-100012500D03*
%TD*%
D15*
%TO.C,U1*%
X97593600Y-56208600D03*
X98393600Y-56208600D03*
X99193600Y-56208600D03*
X99993600Y-56208600D03*
X100793600Y-56208600D03*
X101593600Y-56208600D03*
X102393600Y-56208600D03*
X103193600Y-56208600D03*
X103993600Y-56208600D03*
X104793600Y-56208600D03*
X105593600Y-56208600D03*
D16*
X107293600Y-57908600D03*
X107293600Y-58708600D03*
X107293600Y-59508600D03*
X107293600Y-60308600D03*
X107293600Y-61108600D03*
X107293600Y-61908600D03*
X107293600Y-62708600D03*
X107293600Y-63508600D03*
X107293600Y-64308600D03*
X107293600Y-65108600D03*
X107293600Y-65908600D03*
D15*
X105593600Y-67608600D03*
X104793600Y-67608600D03*
X103993600Y-67608600D03*
X103193600Y-67608600D03*
X102393600Y-67608600D03*
X101593600Y-67608600D03*
X100793600Y-67608600D03*
X99993600Y-67608600D03*
X99193600Y-67608600D03*
X98393600Y-67608600D03*
X97593600Y-67608600D03*
D16*
X95893600Y-65908600D03*
X95893600Y-65108600D03*
X95893600Y-64308600D03*
X95893600Y-63508600D03*
X95893600Y-62708600D03*
X95893600Y-61908600D03*
X95893600Y-61108600D03*
X95893600Y-60308600D03*
X95893600Y-59508600D03*
X95893600Y-58708600D03*
X95893600Y-57908600D03*
%TD*%
D17*
%TO.C,USB1*%
X105243600Y-34922800D03*
X97943600Y-34922800D03*
X97943600Y-39422800D03*
X105243600Y-39422800D03*
D18*
X103193600Y-39422800D03*
X102393600Y-39422800D03*
X101593600Y-39422800D03*
X100793600Y-39422800D03*
X99993600Y-39422800D03*
%TD*%
D12*
%TO.C,MX15*%
X212248750Y-61912500D03*
X202088750Y-61912500D03*
D13*
X207168750Y-61912500D03*
%TD*%
D19*
%TO.C,Brd1*%
X100513600Y-82262900D03*
X97973600Y-82262900D03*
X103053600Y-82262900D03*
X105593600Y-82262900D03*
%TD*%
D20*
%TO.C, *%
X81751100Y-71433000D03*
%TD*%
%TO.C, *%
X140500000Y-71433000D03*
%TD*%
%TO.C, *%
X235728900Y-71433000D03*
%TD*%
%TO.C, *%
X330972900Y-71433000D03*
%TD*%
D12*
%TO.C,MX0C1*%
X345598750Y-42862500D03*
X335438750Y-42862500D03*
D13*
X340518750Y-42862500D03*
%TD*%
M02*
