%TF.GenerationSoftware,KiCad,Pcbnew,5.1.6*%
%TF.CreationDate,2020-06-22T15:50:55+02:00*%
%TF.ProjectId,cheap_boi,63686561-705f-4626-9f69-2e6b69636164,rev?*%
%TF.SameCoordinates,Original*%
%TF.FileFunction,Soldermask,Top*%
%TF.FilePolarity,Negative*%
%FSLAX46Y46*%
G04 Gerber Fmt 4.6, Leading zero omitted, Abs format (unit mm)*
G04 Created by KiCad (PCBNEW 5.1.6) date 2020-06-22 15:50:55*
%MOMM*%
%LPD*%
G01*
G04 APERTURE LIST*
%ADD10C,1.850000*%
%ADD11C,4.087800*%
%ADD12C,5.400000*%
%ADD13O,1.700000X2.100000*%
%ADD14O,1.800000X2.800000*%
%ADD15R,0.600000X2.350000*%
%ADD16R,0.650000X1.600000*%
%ADD17R,1.600000X0.650000*%
G04 APERTURE END LIST*
D10*
%TO.C,MX0C1*%
X345598750Y-42862500D03*
X335438750Y-42862500D03*
D11*
X340518750Y-42862500D03*
%TD*%
D12*
%TO.C,REF\u002A\u002A*%
X331000000Y-71500000D03*
%TD*%
%TO.C,REF\u002A\u002A*%
X236000000Y-71500000D03*
%TD*%
%TO.C,REF\u002A\u002A*%
X140500000Y-71500000D03*
%TD*%
%TO.C,REF\u002A\u002A*%
X82000000Y-71500000D03*
%TD*%
D13*
%TO.C,Brd1*%
X100513600Y-82262900D03*
X97973600Y-82262900D03*
X103053600Y-82262900D03*
X105593600Y-82262900D03*
%TD*%
D10*
%TO.C,MX15*%
X212248750Y-61912500D03*
X202088750Y-61912500D03*
D11*
X207168750Y-61912500D03*
%TD*%
D14*
%TO.C,USB1*%
X105243600Y-34922800D03*
X97943600Y-34922800D03*
X97943600Y-39422800D03*
X105243600Y-39422800D03*
D15*
X103193600Y-39422800D03*
X102393600Y-39422800D03*
X101593600Y-39422800D03*
X100793600Y-39422800D03*
X99993600Y-39422800D03*
%TD*%
D16*
%TO.C,U1*%
X97593600Y-56208600D03*
X98393600Y-56208600D03*
X99193600Y-56208600D03*
X99993600Y-56208600D03*
X100793600Y-56208600D03*
X101593600Y-56208600D03*
X102393600Y-56208600D03*
X103193600Y-56208600D03*
X103993600Y-56208600D03*
X104793600Y-56208600D03*
X105593600Y-56208600D03*
D17*
X107293600Y-57908600D03*
X107293600Y-58708600D03*
X107293600Y-59508600D03*
X107293600Y-60308600D03*
X107293600Y-61108600D03*
X107293600Y-61908600D03*
X107293600Y-62708600D03*
X107293600Y-63508600D03*
X107293600Y-64308600D03*
X107293600Y-65108600D03*
X107293600Y-65908600D03*
D16*
X105593600Y-67608600D03*
X104793600Y-67608600D03*
X103993600Y-67608600D03*
X103193600Y-67608600D03*
X102393600Y-67608600D03*
X101593600Y-67608600D03*
X100793600Y-67608600D03*
X99993600Y-67608600D03*
X99193600Y-67608600D03*
X98393600Y-67608600D03*
X97593600Y-67608600D03*
D17*
X95893600Y-65908600D03*
X95893600Y-65108600D03*
X95893600Y-64308600D03*
X95893600Y-63508600D03*
X95893600Y-62708600D03*
X95893600Y-61908600D03*
X95893600Y-61108600D03*
X95893600Y-60308600D03*
X95893600Y-59508600D03*
X95893600Y-58708600D03*
X95893600Y-57908600D03*
%TD*%
D10*
%TO.C,MX3C1*%
X345598750Y-100012500D03*
X335438750Y-100012500D03*
D11*
X340518750Y-100012500D03*
%TD*%
D10*
%TO.C,MX3B1*%
X326548750Y-100012500D03*
X316388750Y-100012500D03*
D11*
X321468750Y-100012500D03*
%TD*%
D10*
%TO.C,MX3A1*%
X307498750Y-100012500D03*
X297338750Y-100012500D03*
D11*
X302418750Y-100012500D03*
%TD*%
D10*
%TO.C,MX2C1*%
X345598750Y-80962500D03*
X335438750Y-80962500D03*
D11*
X340518750Y-80962500D03*
%TD*%
D10*
%TO.C,MX2B1*%
X326548750Y-80962500D03*
X316388750Y-80962500D03*
D11*
X321468750Y-80962500D03*
%TD*%
D10*
%TO.C,MX2A1*%
X307498750Y-80962500D03*
X297338750Y-80962500D03*
D11*
X302418750Y-80962500D03*
%TD*%
D10*
%TO.C,MX1C1*%
X345598750Y-61912500D03*
X335438750Y-61912500D03*
D11*
X340518750Y-61912500D03*
%TD*%
D10*
%TO.C,MX1B1*%
X326548750Y-61912500D03*
X316388750Y-61912500D03*
D11*
X321468750Y-61912500D03*
%TD*%
D10*
%TO.C,MX1A1*%
X307498750Y-61912500D03*
X297338750Y-61912500D03*
D11*
X302418750Y-61912500D03*
%TD*%
D10*
%TO.C,MX0B1*%
X326548750Y-42862500D03*
X316388750Y-42862500D03*
D11*
X321468750Y-42862500D03*
%TD*%
D10*
%TO.C,MX0A1*%
X307498750Y-42862500D03*
X297338750Y-42862500D03*
D11*
X302418750Y-42862500D03*
%TD*%
D10*
%TO.C,MX39*%
X288448750Y-100012500D03*
X278288750Y-100012500D03*
D11*
X283368750Y-100012500D03*
%TD*%
D10*
%TO.C,MX38*%
X269398750Y-100012500D03*
X259238750Y-100012500D03*
D11*
X264318750Y-100012500D03*
%TD*%
D10*
%TO.C,MX37*%
X250348750Y-100012500D03*
X240188750Y-100012500D03*
D11*
X245268750Y-100012500D03*
%TD*%
D10*
%TO.C,MX36*%
X231298750Y-100012500D03*
X221138750Y-100012500D03*
D11*
X226218750Y-100012500D03*
%TD*%
D10*
%TO.C,MX35*%
X212248750Y-100012500D03*
X202088750Y-100012500D03*
D11*
X207168750Y-100012500D03*
%TD*%
D10*
%TO.C,MX34*%
X193198750Y-100012500D03*
X183038750Y-100012500D03*
D11*
X188118750Y-100012500D03*
%TD*%
D10*
%TO.C,MX33*%
X174148750Y-100012500D03*
X163988750Y-100012500D03*
D11*
X169068750Y-100012500D03*
%TD*%
D10*
%TO.C,MX32*%
X155098750Y-100012500D03*
X144938750Y-100012500D03*
D11*
X150018750Y-100012500D03*
%TD*%
D10*
%TO.C,MX31*%
X136048750Y-100012500D03*
X125888750Y-100012500D03*
D11*
X130968750Y-100012500D03*
%TD*%
D10*
%TO.C,MX30*%
X77311250Y-100012500D03*
X67151250Y-100012500D03*
D11*
X72231250Y-100012500D03*
%TD*%
D10*
%TO.C,MX29*%
X288448750Y-80962500D03*
X278288750Y-80962500D03*
D11*
X283368750Y-80962500D03*
%TD*%
D10*
%TO.C,MX28*%
X269398750Y-80962500D03*
X259238750Y-80962500D03*
D11*
X264318750Y-80962500D03*
%TD*%
D10*
%TO.C,MX27*%
X250348750Y-80962500D03*
X240188750Y-80962500D03*
D11*
X245268750Y-80962500D03*
%TD*%
D10*
%TO.C,MX26*%
X231298750Y-80962500D03*
X221138750Y-80962500D03*
D11*
X226218750Y-80962500D03*
%TD*%
D10*
%TO.C,MX25*%
X212248750Y-80962500D03*
X202088750Y-80962500D03*
D11*
X207168750Y-80962500D03*
%TD*%
D10*
%TO.C,MX24*%
X193198750Y-80962500D03*
X183038750Y-80962500D03*
D11*
X188118750Y-80962500D03*
%TD*%
D10*
%TO.C,MX23*%
X174148750Y-80962500D03*
X163988750Y-80962500D03*
D11*
X169068750Y-80962500D03*
%TD*%
D10*
%TO.C,MX22*%
X155098750Y-80962500D03*
X144938750Y-80962500D03*
D11*
X150018750Y-80962500D03*
%TD*%
D10*
%TO.C,MX21*%
X136048750Y-80962500D03*
X125888750Y-80962500D03*
D11*
X130968750Y-80962500D03*
%TD*%
D10*
%TO.C,MX20*%
X77311250Y-80962500D03*
X67151250Y-80962500D03*
D11*
X72231250Y-80962500D03*
%TD*%
D10*
%TO.C,MX19*%
X288448750Y-61912500D03*
X278288750Y-61912500D03*
D11*
X283368750Y-61912500D03*
%TD*%
D10*
%TO.C,MX18*%
X269398750Y-61912500D03*
X259238750Y-61912500D03*
D11*
X264318750Y-61912500D03*
%TD*%
D10*
%TO.C,MX17*%
X250348750Y-61912500D03*
X240188750Y-61912500D03*
D11*
X245268750Y-61912500D03*
%TD*%
D10*
%TO.C,MX16*%
X231298750Y-61912500D03*
X221138750Y-61912500D03*
D11*
X226218750Y-61912500D03*
%TD*%
D10*
%TO.C,MX14*%
X193198750Y-61912500D03*
X183038750Y-61912500D03*
D11*
X188118750Y-61912500D03*
%TD*%
D10*
%TO.C,MX13*%
X174148750Y-61912500D03*
X163988750Y-61912500D03*
D11*
X169068750Y-61912500D03*
%TD*%
D10*
%TO.C,MX12*%
X155098750Y-61912500D03*
X144938750Y-61912500D03*
D11*
X150018750Y-61912500D03*
%TD*%
D10*
%TO.C,MX11*%
X136048750Y-61912500D03*
X125888750Y-61912500D03*
D11*
X130968750Y-61912500D03*
%TD*%
D10*
%TO.C,MX10*%
X77311250Y-61912500D03*
X67151250Y-61912500D03*
D11*
X72231250Y-61912500D03*
%TD*%
D10*
%TO.C,MX9*%
X288448750Y-42862500D03*
X278288750Y-42862500D03*
D11*
X283368750Y-42862500D03*
%TD*%
D10*
%TO.C,MX8*%
X269398750Y-42862500D03*
X259238750Y-42862500D03*
D11*
X264318750Y-42862500D03*
%TD*%
D10*
%TO.C,MX7*%
X250348750Y-42862500D03*
X240188750Y-42862500D03*
D11*
X245268750Y-42862500D03*
%TD*%
D10*
%TO.C,MX6*%
X231298750Y-42862500D03*
X221138750Y-42862500D03*
D11*
X226218750Y-42862500D03*
%TD*%
D10*
%TO.C,MX5*%
X212248750Y-42862500D03*
X202088750Y-42862500D03*
D11*
X207168750Y-42862500D03*
%TD*%
D10*
%TO.C,MX4*%
X193198750Y-42862500D03*
X183038750Y-42862500D03*
D11*
X188118750Y-42862500D03*
%TD*%
D10*
%TO.C,MX3*%
X174148750Y-42862500D03*
X163988750Y-42862500D03*
D11*
X169068750Y-42862500D03*
%TD*%
D10*
%TO.C,MX2*%
X155098750Y-42862500D03*
X144938750Y-42862500D03*
D11*
X150018750Y-42862500D03*
%TD*%
D10*
%TO.C,MX1*%
X136048750Y-42862500D03*
X125888750Y-42862500D03*
D11*
X130968750Y-42862500D03*
%TD*%
D10*
%TO.C,MX0*%
X77311250Y-42862500D03*
X67151250Y-42862500D03*
D11*
X72231250Y-42862500D03*
%TD*%
M02*
