<?xml version="1.0" standalone="no"?>
 <!DOCTYPE svg PUBLIC "-//W3C//DTD SVG 1.1//EN" 
 "http://www.w3.org/Graphics/SVG/1.1/DTD/svg11.dtd"> 
<svg
  xmlns:svg="http://www.w3.org/2000/svg"
  xmlns="http://www.w3.org/2000/svg"
  xmlns:xlink="http://www.w3.org/1999/xlink"
  version="1.1"
  width="30.165040cm" height="9.052560cm" viewBox="0 0 118760 35640">
<title>SVG Picture created as plate-brd.svg date 2020/09/29 11:11:06 </title>
  <desc>Picture generated by PCBNEW </desc>
<g style="fill:#000000; fill-opacity:1;stroke:#000000; stroke-opacity:1;
stroke-linecap:round; stroke-linejoin:round;"
 transform="translate(0 0) scale(1 1)">
</g>
<g style="fill:#000000; fill-opacity:0.0; 
stroke:#000000; stroke-width:-0.000393701; stroke-opacity:1; 
stroke-linecap:round; stroke-linejoin:round;">
<g >
</g>
<g style="fill:#000000; fill-opacity:1.0; 
stroke:#000000; stroke-width:0; stroke-opacity:1; 
stroke-linecap:round; stroke-linejoin:round;">
<circle cx="108449" cy="17823" r="452.756" /> 
</g>
<g style="fill:#000000; fill-opacity:1.0; 
stroke:#000000; stroke-width:39.3701; stroke-opacity:1; 
stroke-linecap:round; stroke-linejoin:round;">
</g>
<g >
</g>
<g style="fill:#000000; fill-opacity:1.0; 
stroke:#000000; stroke-width:39.3701; stroke-opacity:1; 
stroke-linecap:round; stroke-linejoin:round;">
</g>
<g style="fill:#000000; fill-opacity:1.0; 
stroke:#000000; stroke-width:0; stroke-opacity:1; 
stroke-linecap:round; stroke-linejoin:round;">
<circle cx="10323.7" cy="33760.5" r="452.756" /> 
</g>
<g style="fill:#000000; fill-opacity:1.0; 
stroke:#000000; stroke-width:39.3701; stroke-opacity:1; 
stroke-linecap:round; stroke-linejoin:round;">
</g>
<g >
</g>
<g style="fill:#000000; fill-opacity:1.0; 
stroke:#000000; stroke-width:39.3701; stroke-opacity:1; 
stroke-linecap:round; stroke-linejoin:round;">
</g>
<g style="fill:#000000; fill-opacity:1.0; 
stroke:#000000; stroke-width:0; stroke-opacity:1; 
stroke-linecap:round; stroke-linejoin:round;">
<circle cx="10323.7" cy="1885.49" r="452.756" /> 
</g>
<g style="fill:#000000; fill-opacity:1.0; 
stroke:#000000; stroke-width:39.3701; stroke-opacity:1; 
stroke-linecap:round; stroke-linejoin:round;">
</g>
<g >
</g>
<g style="fill:#000000; fill-opacity:1.0; 
stroke:#000000; stroke-width:39.3701; stroke-opacity:1; 
stroke-linecap:round; stroke-linejoin:round;">
</g>
<g style="fill:#000000; fill-opacity:1.0; 
stroke:#000000; stroke-width:0; stroke-opacity:1; 
stroke-linecap:round; stroke-linejoin:round;">
<circle cx="116574" cy="33448" r="452.756" /> 
</g>
<g style="fill:#000000; fill-opacity:1.0; 
stroke:#000000; stroke-width:39.3701; stroke-opacity:1; 
stroke-linecap:round; stroke-linejoin:round;">
</g>
<g >
</g>
<g style="fill:#000000; fill-opacity:1.0; 
stroke:#000000; stroke-width:39.3701; stroke-opacity:1; 
stroke-linecap:round; stroke-linejoin:round;">
</g>
<g style="fill:#000000; fill-opacity:1.0; 
stroke:#000000; stroke-width:0; stroke-opacity:1; 
stroke-linecap:round; stroke-linejoin:round;">
<circle cx="116886" cy="17822.2" r="452.756" /> 
</g>
<g style="fill:#000000; fill-opacity:1.0; 
stroke:#000000; stroke-width:39.3701; stroke-opacity:1; 
stroke-linecap:round; stroke-linejoin:round;">
</g>
<g >
</g>
<g style="fill:#000000; fill-opacity:1.0; 
stroke:#000000; stroke-width:39.3701; stroke-opacity:1; 
stroke-linecap:round; stroke-linejoin:round;">
</g>
<g style="fill:#000000; fill-opacity:1.0; 
stroke:#000000; stroke-width:0; stroke-opacity:1; 
stroke-linecap:round; stroke-linejoin:round;">
<circle cx="116574" cy="2197.99" r="452.756" /> 
</g>
<g style="fill:#000000; fill-opacity:1.0; 
stroke:#000000; stroke-width:39.3701; stroke-opacity:1; 
stroke-linecap:round; stroke-linejoin:round;">
</g>
<g >
</g>
<g style="fill:#000000; fill-opacity:1.0; 
stroke:#000000; stroke-width:39.3701; stroke-opacity:1; 
stroke-linecap:round; stroke-linejoin:round;">
</g>
<g style="fill:#000000; fill-opacity:1.0; 
stroke:#000000; stroke-width:0; stroke-opacity:1; 
stroke-linecap:round; stroke-linejoin:round;">
<circle cx="97191.2" cy="33757.7" r="452.756" /> 
</g>
<g style="fill:#000000; fill-opacity:1.0; 
stroke:#000000; stroke-width:39.3701; stroke-opacity:1; 
stroke-linecap:round; stroke-linejoin:round;">
</g>
<g >
</g>
<g style="fill:#000000; fill-opacity:1.0; 
stroke:#000000; stroke-width:39.3701; stroke-opacity:1; 
stroke-linecap:round; stroke-linejoin:round;">
</g>
<g style="fill:#000000; fill-opacity:1.0; 
stroke:#000000; stroke-width:0; stroke-opacity:1; 
stroke-linecap:round; stroke-linejoin:round;">
<circle cx="74692.6" cy="33757.7" r="452.756" /> 
</g>
<g style="fill:#000000; fill-opacity:1.0; 
stroke:#000000; stroke-width:39.3701; stroke-opacity:1; 
stroke-linecap:round; stroke-linejoin:round;">
</g>
<g >
</g>
<g style="fill:#000000; fill-opacity:1.0; 
stroke:#000000; stroke-width:39.3701; stroke-opacity:1; 
stroke-linecap:round; stroke-linejoin:round;">
</g>
<g style="fill:#000000; fill-opacity:1.0; 
stroke:#000000; stroke-width:0; stroke-opacity:1; 
stroke-linecap:round; stroke-linejoin:round;">
<circle cx="97191.2" cy="1884.72" r="452.756" /> 
</g>
<g style="fill:#000000; fill-opacity:1.0; 
stroke:#000000; stroke-width:39.3701; stroke-opacity:1; 
stroke-linecap:round; stroke-linejoin:round;">
</g>
<g >
</g>
<g style="fill:#000000; fill-opacity:1.0; 
stroke:#000000; stroke-width:39.3701; stroke-opacity:1; 
stroke-linecap:round; stroke-linejoin:round;">
</g>
<g style="fill:#000000; fill-opacity:1.0; 
stroke:#000000; stroke-width:0; stroke-opacity:1; 
stroke-linecap:round; stroke-linejoin:round;">
<circle cx="74692.6" cy="1884.72" r="452.756" /> 
</g>
<g style="fill:#000000; fill-opacity:1.0; 
stroke:#000000; stroke-width:39.3701; stroke-opacity:1; 
stroke-linecap:round; stroke-linejoin:round;">
</g>
<g >
</g>
<g style="fill:#000000; fill-opacity:1.0; 
stroke:#000000; stroke-width:39.3701; stroke-opacity:1; 
stroke-linecap:round; stroke-linejoin:round;">
</g>
<g style="fill:#000000; fill-opacity:1.0; 
stroke:#000000; stroke-width:0; stroke-opacity:1; 
stroke-linecap:round; stroke-linejoin:round;">
<circle cx="70942.9" cy="17821.2" r="452.756" /> 
</g>
<g style="fill:#000000; fill-opacity:1.0; 
stroke:#000000; stroke-width:39.3701; stroke-opacity:1; 
stroke-linecap:round; stroke-linejoin:round;">
</g>
<g >
</g>
<g style="fill:#000000; fill-opacity:1.0; 
stroke:#000000; stroke-width:39.3701; stroke-opacity:1; 
stroke-linecap:round; stroke-linejoin:round;">
</g>
<g style="fill:#000000; fill-opacity:1.0; 
stroke:#000000; stroke-width:0; stroke-opacity:1; 
stroke-linecap:round; stroke-linejoin:round;">
<circle cx="1884.72" cy="17821.2" r="452.756" /> 
</g>
<g style="fill:#000000; fill-opacity:1.0; 
stroke:#000000; stroke-width:39.3701; stroke-opacity:1; 
stroke-linecap:round; stroke-linejoin:round;">
</g>
<g >
</g>
<g style="fill:#000000; fill-opacity:1.0; 
stroke:#000000; stroke-width:39.3701; stroke-opacity:1; 
stroke-linecap:round; stroke-linejoin:round;">
</g>
<g style="fill:#000000; fill-opacity:1.0; 
stroke:#000000; stroke-width:0; stroke-opacity:1; 
stroke-linecap:round; stroke-linejoin:round;">
<circle cx="52194.1" cy="33757.7" r="452.756" /> 
</g>
<g style="fill:#000000; fill-opacity:1.0; 
stroke:#000000; stroke-width:39.3701; stroke-opacity:1; 
stroke-linecap:round; stroke-linejoin:round;">
</g>
<g >
</g>
<g style="fill:#000000; fill-opacity:1.0; 
stroke:#000000; stroke-width:39.3701; stroke-opacity:1; 
stroke-linecap:round; stroke-linejoin:round;">
</g>
<g style="fill:#000000; fill-opacity:1.0; 
stroke:#000000; stroke-width:0; stroke-opacity:1; 
stroke-linecap:round; stroke-linejoin:round;">
<circle cx="52194.1" cy="1884.72" r="452.756" /> 
</g>
<g style="fill:#000000; fill-opacity:1.0; 
stroke:#000000; stroke-width:39.3701; stroke-opacity:1; 
stroke-linecap:round; stroke-linejoin:round;">
</g>
<g >
</g>
<g style="fill:#000000; fill-opacity:1.0; 
stroke:#000000; stroke-width:39.3701; stroke-opacity:1; 
stroke-linecap:round; stroke-linejoin:round;">
</g>
<g style="fill:#000000; fill-opacity:1.0; 
stroke:#000000; stroke-width:0; stroke-opacity:1; 
stroke-linecap:round; stroke-linejoin:round;">
<circle cx="29695.5" cy="33757.7" r="452.756" /> 
</g>
<g style="fill:#000000; fill-opacity:1.0; 
stroke:#000000; stroke-width:39.3701; stroke-opacity:1; 
stroke-linecap:round; stroke-linejoin:round;">
</g>
<g >
</g>
<g style="fill:#000000; fill-opacity:1.0; 
stroke:#000000; stroke-width:39.3701; stroke-opacity:1; 
stroke-linecap:round; stroke-linejoin:round;">
</g>
<g style="fill:#000000; fill-opacity:1.0; 
stroke:#000000; stroke-width:0; stroke-opacity:1; 
stroke-linecap:round; stroke-linejoin:round;">
<circle cx="29695.5" cy="1884.72" r="452.756" /> 
</g>
<g style="fill:#000000; fill-opacity:1.0; 
stroke:#000000; stroke-width:39.3701; stroke-opacity:1; 
stroke-linecap:round; stroke-linejoin:round;">
</g>
<g >
</g>
<g style="fill:#000000; fill-opacity:1.0; 
stroke:#000000; stroke-width:39.3701; stroke-opacity:1; 
stroke-linecap:round; stroke-linejoin:round;">
</g>
<g style="fill:#000000; fill-opacity:1.0; 
stroke:#000000; stroke-width:0; stroke-opacity:1; 
stroke-linecap:round; stroke-linejoin:round;">
<circle cx="2198.72" cy="2197.99" r="452.756" /> 
</g>
<g style="fill:#000000; fill-opacity:1.0; 
stroke:#000000; stroke-width:39.3701; stroke-opacity:1; 
stroke-linecap:round; stroke-linejoin:round;">
</g>
<g >
</g>
<g style="fill:#000000; fill-opacity:1.0; 
stroke:#000000; stroke-width:39.3701; stroke-opacity:1; 
stroke-linecap:round; stroke-linejoin:round;">
</g>
<g style="fill:#000000; fill-opacity:1.0; 
stroke:#000000; stroke-width:0; stroke-opacity:1; 
stroke-linecap:round; stroke-linejoin:round;">
<circle cx="2198.72" cy="33448" r="452.756" /> 
</g>
<g style="fill:#000000; fill-opacity:1.0; 
stroke:#000000; stroke-width:39.3701; stroke-opacity:1; 
stroke-linecap:round; stroke-linejoin:round;">
</g>
<g >
</g>
<g style="fill:#000000; fill-opacity:1.0; 
stroke:#000000; stroke-width:39.3701; stroke-opacity:1; 
stroke-linecap:round; stroke-linejoin:round;">
</g>
<g style="fill:#000000; fill-opacity:1.0; 
stroke:#000000; stroke-width:0; stroke-opacity:1; 
stroke-linecap:round; stroke-linejoin:round;">
<circle cx="33445.2" cy="17821.2" r="452.756" /> 
</g>
<g style="fill:#000000; fill-opacity:1.0; 
stroke:#000000; stroke-width:39.3701; stroke-opacity:1; 
stroke-linecap:round; stroke-linejoin:round;">
</g>
<g >
</g>
<g style="fill:#000000; fill-opacity:1.0; 
stroke:#000000; stroke-width:39.3701; stroke-opacity:1; 
stroke-linecap:round; stroke-linejoin:round;">
</g>
<g style="fill:#000000; fill-opacity:1.0; 
stroke:#000000; stroke-width:0; stroke-opacity:1; 
stroke-linecap:round; stroke-linejoin:round;">
<circle cx="10321.7" cy="17821.2" r="452.756" /> 
</g>
<g style="fill:#000000; fill-opacity:1.0; 
stroke:#000000; stroke-width:39.3701; stroke-opacity:1; 
stroke-linecap:round; stroke-linejoin:round;">
</g>
<g >
</g>
<g >
</g>
<g >
</g>
</g>
<g style="fill:#000000; fill-opacity:1.0; 
stroke:#000000; stroke-width:39.3701; stroke-opacity:1; 
stroke-linecap:round; stroke-linejoin:round;">
</g>
<g style="fill:#000000; fill-opacity:1.0; 
stroke:#000000; stroke-width:19.685; stroke-opacity:1; 
stroke-linecap:round; stroke-linejoin:round;">
</g>
<g style="fill:#000000; fill-opacity:0.0; 
stroke:#000000; stroke-width:19.685; stroke-opacity:1; 
stroke-linecap:round; stroke-linejoin:round;">
<path d="M27198 10
L115315 9
" />
<path d="M9386 22
L3447 9
" />
<path d="M12823 3460
L12821 5321
" />
<path d="M23761 3447
L23758 5321
" />
<path d="M27198.5 10.7091 A3437.28 3437.28 0.0 0 0 23761.2 3447.99" />
<path d="M22195 6883
L14383 6883
" />
<path d="M12821.5 5321.22 A1562.4 1562.4 0.0 0 0 14383.9 6883.62" />
<path d="M22195.9 6883.62 A1562.4 1562.4 0.0 0 0 23758.3 5321.22" />
<path d="M12823.7 3460.28 A3437.28 3437.28 0.0 0 0 9386.44 22.9925" />
<path d="M115315 35632
L27195 35632
" />
<path d="M3447 35632
L9384 35632
" />
<path d="M12821 22820
L12821 32195
" />
<path d="M23758 22820
L23758 32195
" />
<path d="M23758.3 32195.3 A3437.28 3437.28 0.0 0 0 27195.6 35632.6" />
<path d="M9384.25 35632.6 A3437.28 3437.28 0.0 0 0 12821.5 32195.3" />
<path d="M77504 26258
L77504 31882
" />
<path d="M71880 31882
L71880 26258
" />
<path d="M62505 31882
L56881 31882
" />
<path d="M85004 31882
L79379 31882
" />
<path d="M70005 26258
L70005 31882
" />
<path d="M85004 26258
L85004 31882
" />
<path d="M79379 26258
L85004 26258
" />
<path d="M70005 31882
L64380 31882
" />
<path d="M100003 26258
L100003 31882
" />
<path d="M92504 26258
L92504 31882
" />
<path d="M62505 26258
L62505 31882
" />
<path d="M49381 26258
L55006 26258
" />
<path d="M40007 31882
L34382 31882
" />
<path d="M64380 26258
L70005 26258
" />
<path d="M26883 26258
L32507 26258
" />
<path d="M34382 26258
L40007 26258
" />
<path d="M47506 31882
L41882 31882
" />
<path d="M86879 26258
L92504 26258
" />
<path d="M100003 31882
L94378 31882
" />
<path d="M55006 26258
L55006 31882
" />
<path d="M92504 31882
L86879 31882
" />
<path d="M49381 31882
L49381 26258
" />
<path d="M109377 31882
L109377 26258
" />
<path d="M115002 26258
L115002 31882
" />
<path d="M107503 31882
L101878 31882
" />
<path d="M56881 26258
L62505 26258
" />
<path d="M79379 26258
L79379 31882
" />
<path d="M26883 31882
L26883 26258
" />
<path d="M101878 31882
L101878 26258
" />
<path d="M94378 31882
L94378 26258
" />
<path d="M41882 26258
L47506 26258
" />
<path d="M94378 26258
L100003 26258
" />
<path d="M41882 31882
L41882 26258
" />
<path d="M115002 31882
L109377 31882
" />
<path d="M101878 26258
L107503 26258
" />
<path d="M56881 31882
L56881 26258
" />
<path d="M34382 31882
L34382 26258
" />
<path d="M40007 26258
L40007 31882
" />
<path d="M55006 31882
L49381 31882
" />
<path d="M107503 26258
L107503 31882
" />
<path d="M32507 26258
L32507 31882
" />
<path d="M109377 26258
L115002 26258
" />
<path d="M71880 26258
L77504 26258
" />
<path d="M77504 31882
L71880 31882
" />
<path d="M64380 31882
L64380 26258
" />
<path d="M32507 31882
L26883 31882
" />
<path d="M47506 26258
L47506 31882
" />
<path d="M86879 31882
L86879 26258
" />
<path d="M94378 9384
L94378 3759
" />
<path d="M49381 9384
L49381 3759
" />
<path d="M86879 3759
L92504 3759
" />
<path d="M109377 9384
L109377 3759
" />
<path d="M70005 9384
L64380 9384
" />
<path d="M41882 3759
L47506 3759
" />
<path d="M55006 9384
L49381 9384
" />
<path d="M100003 9384
L94378 9384
" />
<path d="M71880 3759
L77504 3759
" />
<path d="M56881 3759
L62505 3759
" />
<path d="M56881 9384
L56881 3759
" />
<path d="M85004 3759
L85004 9384
" />
<path d="M34382 9384
L34382 3759
" />
<path d="M47506 9384
L41882 9384
" />
<path d="M64380 9384
L64380 3759
" />
<path d="M32507 9384
L26883 9384
" />
<path d="M94378 3759
L100003 3759
" />
<path d="M77504 3759
L77504 9384
" />
<path d="M70005 3759
L70005 9384
" />
<path d="M79379 3759
L85004 3759
" />
<path d="M47506 3759
L47506 9384
" />
<path d="M115002 9384
L109377 9384
" />
<path d="M107503 3759
L107503 9384
" />
<path d="M62505 3759
L62505 9384
" />
<path d="M41882 9384
L41882 3759
" />
<path d="M62505 9384
L56881 9384
" />
<path d="M77504 9384
L71880 9384
" />
<path d="M79379 3759
L79379 9384
" />
<path d="M55006 3759
L55006 9384
" />
<path d="M34382 3759
L40007 3759
" />
<path d="M100003 3759
L100003 9384
" />
<path d="M32507 3759
L32507 9384
" />
<path d="M40007 9384
L34382 9384
" />
<path d="M85004 9384
L79379 9384
" />
<path d="M115002 3759
L115002 9384
" />
<path d="M64380 3759
L70005 3759
" />
<path d="M26883 9384
L26883 3759
" />
<path d="M49381 3759
L55006 3759
" />
<path d="M109377 3759
L115002 3759
" />
<path d="M40007 3759
L40007 9384
" />
<path d="M86879 9384
L86879 3759
" />
<path d="M101878 3759
L107503 3759
" />
<path d="M71880 9384
L71880 3759
" />
<path d="M26883 3759
L32507 3759
" />
<path d="M101878 9384
L101878 3759
" />
<path d="M92504 3759
L92504 9384
" />
<path d="M92504 9384
L86879 9384
" />
<path d="M107503 9384
L101878 9384
" />
<path d="M49381 24383
L49381 18758
" />
<path d="M55006 18758
L55006 24383
" />
<path d="M55006 24383
L49381 24383
" />
<path d="M49381 18758
L55006 18758
" />
<path d="M77504 24383
L71880 24383
" />
<path d="M107503 24383
L101878 24383
" />
<path d="M70005 24383
L64380 24383
" />
<path d="M62505 24383
L56881 24383
" />
<path d="M100003 24383
L94378 24383
" />
<path d="M85004 24383
L79379 24383
" />
<path d="M92504 24383
L86879 24383
" />
<path d="M26883 18758
L32507 18758
" />
<path d="M40007 18758
L40007 24383
" />
<path d="M26883 24383
L26883 18758
" />
<path d="M40007 24383
L34382 24383
" />
<path d="M32507 18758
L32507 24383
" />
<path d="M34382 18758
L40007 18758
" />
<path d="M41882 24383
L41882 18758
" />
<path d="M47506 18758
L47506 24383
" />
<path d="M32507 24383
L26883 24383
" />
<path d="M47506 24383
L41882 24383
" />
<path d="M34382 24383
L34382 18758
" />
<path d="M41882 18758
L47506 18758
" />
<path d="M92504 18758
L92504 24383
" />
<path d="M101878 24383
L101878 18758
" />
<path d="M71880 24383
L71880 18758
" />
<path d="M101878 18758
L107503 18758
" />
<path d="M86879 24383
L86879 18758
" />
<path d="M109377 18758
L115002 18758
" />
<path d="M64380 18758
L70005 18758
" />
<path d="M115002 18758
L115002 24383
" />
<path d="M100003 18758
L100003 24383
" />
<path d="M79379 18758
L79379 24383
" />
<path d="M62505 18758
L62505 24383
" />
<path d="M107503 18758
L107503 24383
" />
<path d="M115002 24383
L109377 24383
" />
<path d="M79379 18758
L85004 18758
" />
<path d="M70005 18758
L70005 24383
" />
<path d="M77504 18758
L77504 24383
" />
<path d="M94378 18758
L100003 18758
" />
<path d="M64380 24383
L64380 18758
" />
<path d="M85004 18758
L85004 24383
" />
<path d="M56881 24383
L56881 18758
" />
<path d="M56881 18758
L62505 18758
" />
<path d="M71880 18758
L77504 18758
" />
<path d="M109377 24383
L109377 18758
" />
<path d="M86879 18758
L92504 18758
" />
<path d="M94378 24383
L94378 18758
" />
<path d="M107503 16883
L101878 16883
" />
<path d="M92504 16883
L86879 16883
" />
<path d="M92504 11259
L92504 16883
" />
<path d="M101878 16883
L101878 11259
" />
<path d="M71880 16883
L71880 11259
" />
<path d="M101878 11259
L107503 11259
" />
<path d="M86879 16883
L86879 11259
" />
<path d="M109377 11259
L115002 11259
" />
<path d="M64380 11259
L70005 11259
" />
<path d="M115002 11259
L115002 16883
" />
<path d="M85004 16883
L79379 16883
" />
<path d="M100003 11259
L100003 16883
" />
<path d="M79379 11259
L79379 16883
" />
<path d="M77504 16883
L71880 16883
" />
<path d="M62505 16883
L56881 16883
" />
<path d="M62505 11259
L62505 16883
" />
<path d="M107503 11259
L107503 16883
" />
<path d="M115002 16883
L109377 16883
" />
<path d="M79379 11259
L85004 11259
" />
<path d="M70005 11259
L70005 16883
" />
<path d="M77504 11259
L77504 16883
" />
<path d="M94378 11259
L100003 11259
" />
<path d="M64380 16883
L64380 11259
" />
<path d="M85004 11259
L85004 16883
" />
<path d="M56881 16883
L56881 11259
" />
<path d="M56881 11259
L62505 11259
" />
<path d="M71880 11259
L77504 11259
" />
<path d="M100003 16883
L94378 16883
" />
<path d="M70005 16883
L64380 16883
" />
<path d="M109377 16883
L109377 11259
" />
<path d="M86879 11259
L92504 11259
" />
<path d="M94378 16883
L94378 11259
" />
<path d="M55006 11259
L55006 16883
" />
<path d="M55006 16883
L49381 16883
" />
<path d="M49381 11259
L55006 11259
" />
<path d="M49381 16883
L49381 11259
" />
<path d="M47506 11259
L47506 16883
" />
<path d="M47506 16883
L41882 16883
" />
<path d="M41882 11259
L47506 11259
" />
<path d="M41882 16883
L41882 11259
" />
<path d="M40007 11259
L40007 16883
" />
<path d="M40007 16883
L34382 16883
" />
<path d="M34382 11259
L40007 11259
" />
<path d="M34382 16883
L34382 11259
" />
<path d="M26883 11259
L27195 11259
" />
<path d="M26883 16883
L26883 11259
" />
<path d="M32507 16883
L26883 16883
" />
<path d="M32507 11259
L32507 16883
" />
<path d="M27195 11259
L32507 11259
" />
<path d="M9 3447
L9 32195
" />
<path d="M118752 32195
L118752 3447
" />
<path d="M115315 35632.6 A3437.28 3437.28 0.0 0 0 118752 32195.3" />
<path d="M118752 3447.13 A3437.28 3437.28 0.0 0 0 115315 9.84291" />
<path d="M3447.13 9.84291 A3437.28 3437.28 0.0 0 0 9.84291 3447.13" />
<path d="M9.84291 32195.3 A3437.28 3437.28 0.0 0 0 3447.13 35632.6" />
<path d="M3759 26258
L3761 31885
" />
<path d="M9384 31882
L3761 31885
" />
<path d="M9384 26258
L9384 31882
" />
<path d="M3759 26258
L9384 26258
" />
<path d="M3759 24383
L3759 18758
" />
<path d="M9384 24383
L3759 24383
" />
<path d="M9384 18758
L9384 24383
" />
<path d="M3759 18758
L9384 18758
" />
<path d="M3759 16883
L3759 11259
" />
<path d="M9384 16883
L3759 16883
" />
<path d="M9384 11259
L9384 16883
" />
<path d="M3759 11259
L9384 11259
" />
<path d="M14383 21258
L22195 21258
" />
<path d="M22195 19383
L14383 19383
" />
<path d="M23758 10321
L23758 17821
" />
<path d="M14383 8759
L22195 8759
" />
<path d="M12821 17821
L12821 10321
" />
<path d="M14383.9 8759.29 A1562.4 1562.4 0.0 0 0 12821.5 10321.7" />
<path d="M23758.3 10321.7 A1562.4 1562.4 0.0 0 0 22195.9 8759.29" />
<path d="M22195.9 19383.6 A1562.4 1562.4 0.0 0 0 23758.3 17821.2" />
<path d="M12821.5 17821.2 A1562.4 1562.4 0.0 0 0 14383.9 19383.6" />
<path d="M23758.3 22820.9 A1562.4 1562.4 0.0 0 0 22195.9 21258.5" />
<path d="M14383.9 21258.5 A1562.4 1562.4 0.0 0 0 12821.5 22820.9" />
<path d="M3759 9384
L3761 3760
" />
<path d="M9384 9384
L3759 9384
" />
<path d="M9384 3759
L9384 9384
" />
<path d="M3761 3760
L9384 3759
" />
<g >
</g>
<g >
</g>
<g >
</g>
<g >
</g>
<g >
</g>
<g >
</g>
<g >
</g>
<g >
</g>
<g >
</g>
<g >
</g>
<g >
</g>
<g >
</g>
<g >
</g>
<g >
</g>
<g >
</g>
<g >
</g>
<g >
</g>
<g >
</g>
<g >
</g>
<g >
</g>
<g >
</g>
</g> 
</svg>
