M48
; DRILL file {KiCad 5.1.6} date Wed Jun 24 11:11:29 2020
; FORMAT={-:-/ absolute / inch / decimal}
; #@! TF.CreationDate,2020-06-24T11:11:29+02:00
; #@! TF.GenerationSoftware,Kicad,Pcbnew,5.1.6
; #@! TF.FileFunction,Plated,1,2,PTH
FMAT,2
INCH
T1C0.0157
T2C0.0276
T3C0.0394
T4C0.0579
%
G90
G05
T1
X3.2728Y-3.3822
X3.3053Y-3.4147
X3.31Y-3.335
X3.32Y-1.71
X3.35Y-3.37
X3.38Y-3.8222
X3.425Y-2.335
X3.4759Y-2.84
X3.49Y-2.345
X3.5073Y-2.0723
X3.525Y-2.03
X3.57Y-2.165
X3.595Y-2.715
X3.5985Y-2.235
X3.605Y-2.415
X3.61Y-2.465
X3.61Y-2.515
X3.6671Y-2.51
X3.69Y-2.305
X3.7548Y-1.8248
X3.795Y-2.135
X3.8325Y-1.9025
X3.8375Y-2.4675
X3.8423Y-2.281
X3.85Y-2.135
X3.89Y-1.87
X3.9053Y-2.5542
X3.9262Y-1.6534
X3.955Y-2.75
X3.96Y-1.98
X3.9712Y-2.14
X3.9835Y-2.79
X3.9944Y-2.75
X3.995Y-1.645
X4.0Y-2.44
X4.0314Y-1.6632
X4.065Y-2.715
X4.09Y-1.905
X4.1023Y-2.7435
X4.12Y-2.02
X4.15Y-2.295
X4.16Y-2.135
X4.33Y-2.28
X4.37Y-2.515
X4.375Y-2.585
X4.385Y-2.875
X4.4615Y-3.76
X4.49Y-3.6868
X4.505Y-2.575
X4.52Y-2.7503
X4.52Y-2.5035
X4.5367Y-2.165
X4.5367Y-2.21
X4.5367Y-2.2606
X4.5367Y-2.3
X4.5367Y-2.34
X4.595Y-3.51
X4.6235Y-3.4762
X4.6521Y-3.4387
X4.685Y-3.405
X4.715Y-2.735
X4.7465Y-3.405
X4.775Y-4.16
X4.7821Y-2.6125
X4.805Y-3.45
X4.805Y-3.4894
X4.8107Y-2.57
X4.9777Y-2.08
X4.9777Y-2.24
X5.32Y-1.8765
X5.53Y-2.26
X8.965Y-3.4981
X9.27Y-3.745
X13.06Y-3.77
X13.095Y-2.215
T3
X3.8572Y-3.2387
X3.9572Y-3.2387
X4.0572Y-3.2387
X4.1572Y-3.2387
T4
X9.5062Y-1.5875
X9.5578Y-1.53
X9.7547Y-1.5103
X9.7562Y-1.4875
X6.5062Y-2.3375
X6.5578Y-2.28
X6.7547Y-2.2603
X6.7562Y-2.2375
X2.6938Y-2.3375
X2.7453Y-2.28
X2.9422Y-2.2603
X2.9438Y-2.2375
X6.5062Y-3.8375
X6.5578Y-3.78
X6.7547Y-3.7603
X6.7562Y-3.7375
X6.5062Y-1.5875
X6.5578Y-1.53
X6.7547Y-1.5103
X6.7562Y-1.4875
X5.7562Y-3.8375
X5.8078Y-3.78
X6.0047Y-3.7603
X6.0062Y-3.7375
X11.0062Y-1.5875
X11.0578Y-1.53
X11.2547Y-1.5103
X11.2562Y-1.4875
X5.7562Y-2.3375
X5.8078Y-2.28
X6.0047Y-2.2603
X6.0062Y-2.2375
X7.2562Y-3.0875
X7.3078Y-3.03
X7.5047Y-3.0103
X7.5062Y-2.9875
X11.0062Y-3.0875
X11.0578Y-3.03
X11.2547Y-3.0103
X11.2562Y-2.9875
X8.0062Y-2.3375
X8.0578Y-2.28
X8.2547Y-2.2603
X8.2562Y-2.2375
X5.7562Y-1.5875
X5.8078Y-1.53
X6.0047Y-1.5103
X6.0062Y-1.4875
X13.2562Y-1.5875
X13.3078Y-1.53
X13.5047Y-1.5103
X13.5062Y-1.4875
X12.5062Y-2.3375
X12.5578Y-2.28
X12.7547Y-2.2603
X12.7562Y-2.2375
X9.5062Y-3.0875
X9.5578Y-3.03
X9.7547Y-3.0103
X9.7562Y-2.9875
X10.2562Y-1.5875
X10.3078Y-1.53
X10.5047Y-1.5103
X10.5062Y-1.4875
X11.7562Y-3.8375
X11.8078Y-3.78
X12.0047Y-3.7603
X12.0062Y-3.7375
X10.2562Y-3.0875
X10.3078Y-3.03
X10.5047Y-3.0103
X10.5062Y-2.9875
X8.7562Y-2.3375
X8.8078Y-2.28
X9.0047Y-2.2603
X9.0062Y-2.2375
X8.7562Y-3.0875
X8.8078Y-3.03
X9.0047Y-3.0103
X9.0062Y-2.9875
X2.6938Y-3.8375
X2.7453Y-3.78
X2.9422Y-3.7603
X2.9438Y-3.7375
X8.7562Y-3.8375
X8.8078Y-3.78
X9.0047Y-3.7603
X9.0062Y-3.7375
X11.7562Y-2.3375
X11.8078Y-2.28
X12.0047Y-2.2603
X12.0062Y-2.2375
X5.7562Y-3.0875
X5.8078Y-3.03
X6.0047Y-3.0103
X6.0062Y-2.9875
X7.2562Y-2.3375
X7.3078Y-2.28
X7.5047Y-2.2603
X7.5062Y-2.2375
X12.5062Y-1.5875
X12.5578Y-1.53
X12.7547Y-1.5103
X12.7562Y-1.4875
X8.0062Y-3.0875
X8.0578Y-3.03
X8.2547Y-3.0103
X8.2562Y-2.9875
X5.0062Y-3.0875
X5.0578Y-3.03
X5.2547Y-3.0103
X5.2562Y-2.9875
X7.2562Y-1.5875
X7.3078Y-1.53
X7.5047Y-1.5103
X7.5062Y-1.4875
X13.2562Y-2.3375
X13.3078Y-2.28
X13.5047Y-2.2603
X13.5062Y-2.2375
X5.0062Y-3.8375
X5.0578Y-3.78
X5.2547Y-3.7603
X5.2562Y-3.7375
X10.2562Y-2.3375
X10.3078Y-2.28
X10.5047Y-2.2603
X10.5062Y-2.2375
X9.5062Y-3.8375
X9.5578Y-3.78
X9.7547Y-3.7603
X9.7562Y-3.7375
X13.2562Y-3.8375
X13.3078Y-3.78
X13.5047Y-3.7603
X13.5062Y-3.7375
X8.7562Y-1.5875
X8.8078Y-1.53
X9.0047Y-1.5103
X9.0062Y-1.4875
X5.0062Y-2.3375
X5.0578Y-2.28
X5.2547Y-2.2603
X5.2562Y-2.2375
X11.7562Y-1.5875
X11.8078Y-1.53
X12.0047Y-1.5103
X12.0062Y-1.4875
X12.5062Y-3.8375
X12.5578Y-3.78
X12.7547Y-3.7603
X12.7562Y-3.7375
X7.2562Y-3.8375
X7.3078Y-3.78
X7.5047Y-3.7603
X7.5062Y-3.7375
X9.5062Y-2.3375
X9.5578Y-2.28
X9.7547Y-2.2603
X9.7562Y-2.2375
X8.0062Y-3.8375
X8.0578Y-3.78
X8.2547Y-3.7603
X8.2562Y-3.7375
X2.6938Y-3.0875
X2.7453Y-3.03
X2.9422Y-3.0103
X2.9438Y-2.9875
X11.0062Y-2.3375
X11.0578Y-2.28
X11.2547Y-2.2603
X11.2562Y-2.2375
X2.6938Y-1.5875
X2.7453Y-1.53
X2.9422Y-1.5103
X2.9438Y-1.4875
X13.2562Y-3.0875
X13.3078Y-3.03
X13.5047Y-3.0103
X13.5062Y-2.9875
X11.7562Y-3.0875
X11.8078Y-3.03
X12.0047Y-3.0103
X12.0062Y-2.9875
X11.0062Y-3.8375
X11.0578Y-3.78
X11.2547Y-3.7603
X11.2562Y-3.7375
X5.0062Y-1.5875
X5.0578Y-1.53
X5.2547Y-1.5103
X5.2562Y-1.4875
X8.0062Y-1.5875
X8.0578Y-1.53
X8.2547Y-1.5103
X8.2562Y-1.4875
X10.2562Y-3.8375
X10.3078Y-3.78
X10.5047Y-3.7603
X10.5062Y-3.7375
X12.5062Y-3.0875
X12.5578Y-3.03
X12.7547Y-3.0103
X12.7562Y-2.9875
X6.5062Y-3.0875
X6.5578Y-3.03
X6.7547Y-3.0103
X6.7562Y-2.9875
T2
G00X3.856Y-1.3513
M15
G01X3.856Y-1.3985
M16
G05
G00X3.856Y-1.5285
M15
G01X3.856Y-1.5757
M16
G05
G00X4.1434Y-1.3513
M15
G01X4.1434Y-1.3985
M16
G05
G00X4.1434Y-1.5285
M15
G01X4.1434Y-1.5757
M16
G05
T0
M30
