M48
; DRILL file {KiCad 5.1.6} date Wed Jun 24 16:02:41 2020
; FORMAT={-:-/ absolute / inch / decimal}
; #@! TF.CreationDate,2020-06-24T16:02:41+02:00
; #@! TF.GenerationSoftware,Kicad,Pcbnew,5.1.6
; #@! TF.FileFunction,NonPlated,1,2,NPTH
FMAT,2
INCH
T1C0.0866
%
G90
G05
T1
X9.2807Y-2.8123
X11.9055Y-1.2187
X9.6556Y-4.406
X7.4058Y-1.2187
X3.2188Y-1.2188
X3.2188Y-4.4062
X13.875Y-2.8124
X2.3749Y-2.8123
X7.4058Y-4.406
X9.6556Y-1.2187
X5.1559Y-1.2187
X13.8438Y-4.375
X3.2185Y-2.8123
X5.5309Y-2.8123
X13.8438Y-1.25
X2.4062Y-4.375
X2.4062Y-1.25
X13.0312Y-2.8125
X11.9055Y-4.406
X5.1559Y-4.406
T0
M30
