M48
; DRILL file {KiCad 5.1.6} date Tue Jun 23 07:03:29 2020
; FORMAT={-:-/ absolute / inch / decimal}
; #@! TF.CreationDate,2020-06-23T07:03:29+02:00
; #@! TF.GenerationSoftware,Kicad,Pcbnew,5.1.6
; #@! TF.FileFunction,NonPlated,1,2,NPTH
FMAT,2
INCH
T1C0.0866
%
G90
G05
T1
X3.2188Y-4.4062
X3.2188Y-1.2188
X11.9055Y-4.406
X11.9055Y-1.2187
X2.4062Y-1.25
X7.4058Y-1.2187
X2.3749Y-2.8123
X7.4058Y-4.406
X2.4062Y-4.375
X9.6556Y-4.406
X13.8438Y-4.375
X13.0312Y-2.8125
X5.1559Y-4.406
X3.2185Y-2.8123
X9.2807Y-2.8123
X13.8438Y-1.25
X9.6556Y-1.2187
X5.5309Y-2.8123
X13.875Y-2.8124
X5.1559Y-1.2187
T0
M30
